<svg xmlns="http://www.w3.org/2000/svg" width="512" height="512" viewBox="0 0 512 512" version="1.1"><path d="M 189.699 149.808 L 90.876 248.615 120.897 279.058 L 150.918 309.500 239.171 221 C 287.709 172.325, 345.658 114.162, 367.945 91.750 L 408.467 51 348.494 51 L 288.521 51 189.699 149.808 M 236.164 288.336 L 182.836 341.671 220.578 378.586 C 241.337 398.888, 265.786 422.809, 274.911 431.742 L 291.500 447.985 350.996 447.992 L 410.493 448 357.037 394.537 L 303.581 341.074 306.012 338.287 C 307.349 336.754, 330.505 313.333, 357.471 286.240 C 384.437 259.147, 406.650 236.535, 406.833 235.990 C 407.051 235.344, 386.722 235, 348.330 235 L 289.493 235 236.164 288.336" stroke="none" fill="#b70aca" fill-rule="evenodd"/><path d="M 32.112 1.575 C 24.411 3.654, 15.543 8.657, 11.370 13.276 C 6.952 18.166, 2.383 27.709, 1.021 34.891 C -0.391 42.335, -0.391 469.665, 1.021 477.109 C 2.383 484.291, 6.952 493.834, 11.370 498.724 C 13.346 500.912, 17.596 504.105, 20.813 505.820 C 33.246 512.446, 16.267 512, 256 512 C 495.733 512, 478.754 512.446, 491.187 505.820 C 494.404 504.105, 498.654 500.912, 500.630 498.724 C 504.914 493.983, 509.979 483.577, 510.730 477.973 C 511.027 475.761, 511.659 473.711, 512.135 473.417 C 512.617 473.118, 513 376.466, 513 254.882 C 513 109.803, 512.665 37.089, 512 37.500 C 511.441 37.845, 511 37.075, 511 35.753 C 511 31.396, 507.017 21.549, 503.213 16.500 C 498.894 10.768, 492.489 6.150, 484.238 2.817 L 478.500 0.500 258 0.310 C 67.779 0.146, 36.760 0.320, 32.112 1.575 M 0.491 256 C 0.491 376.175, 0.608 425.337, 0.750 365.250 C 0.892 305.163, 0.892 206.838, 0.750 146.750 C 0.608 86.662, 0.491 135.825, 0.491 256 M 189.699 149.808 L 90.876 248.615 120.897 279.058 L 150.918 309.500 239.171 221 C 287.709 172.325, 345.658 114.162, 367.945 91.750 L 408.467 51 348.494 51 L 288.521 51 189.699 149.808 M 236.164 288.336 L 182.836 341.671 220.578 378.586 C 241.337 398.888, 265.786 422.809, 274.911 431.742 L 291.500 447.985 350.996 447.992 L 410.493 448 357.037 394.537 L 303.581 341.074 306.012 338.287 C 307.349 336.754, 330.505 313.333, 357.471 286.240 C 384.437 259.147, 406.650 236.535, 406.833 235.990 C 407.051 235.344, 386.722 235, 348.330 235 L 289.493 235 236.164 288.336" stroke="none" fill="#35bcfb" fill-rule="evenodd"/></svg>